<svg width="64" height="64" viewBox="0 0 64 64" fill="none" xmlns="http://www.w3.org/2000/svg">
<g clip-path="url(#clip0_2_1735)">
<path d="M59.7424 64C62.0829 64 64.0001 62.1152 64.0001 59.8072V17.0401C64.0001 14.7322 62.0829 12.8474 59.7424 12.8474H18.1851L34.8631 64H59.7424Z" fill="#DBDBDB"/>
<path d="M59.7424 14.7707C60.3644 14.7707 60.9543 15.0143 61.3968 15.4502C61.8328 15.8798 62.0765 16.4439 62.0765 17.0401V59.8072C62.0765 60.4035 61.8392 60.9676 61.3968 61.3971C60.9543 61.8331 60.3644 62.0767 59.7424 62.0767H36.261L20.8333 14.7707H59.7424ZM59.7424 12.8474H18.1851L34.8631 64H59.7424C62.0829 64 64.0001 62.1152 64.0001 59.8072V17.0401C64.0001 14.7322 62.0829 12.8474 59.7424 12.8474Z" fill="#DCDCDC"/>
<path d="M30.926 51.9154L34.8631 63.9999L45.8087 51.9154H30.926Z" fill="#4352B8"/>
<path d="M60.0244 30.5223V28.0157H47.9374V23.964H44.0132V28.0157H36.2993V30.5223H51.6501C50.8293 33.4137 49.0147 36.1447 47.2449 38.2667C44.1094 34.5548 44.0965 33.3495 44.0965 33.3495H40.8391C40.8391 33.3495 40.9738 35.1574 45.3726 40.3118C43.9426 41.7735 42.859 42.6389 42.859 42.6389L43.8593 45.7675C43.8593 45.7675 45.3726 44.466 47.2641 42.4594C49.1622 44.5173 51.6116 46.9919 54.7792 49.9409L56.8375 47.8831C53.4455 44.8058 50.9576 42.3633 49.1301 40.4015C51.5796 37.5038 54.0675 33.856 54.5933 30.5159H60.018V30.5223H60.0244Z" fill="#607988"/>
<path d="M4.25769 0C1.91724 0 0 1.91686 0 4.26325V47.665C0 50.005 1.91724 51.9219 4.25769 51.9219H45.8151L29.137 0H4.25769Z" fill="#4285F4"/>
<path d="M34.2603 12.8474H59.7423C62.0827 12.8474 64 14.7322 64 17.0401V42.6966L34.2603 12.8474Z" fill="url(#paint0_linear_2_1735)"/>
<path d="M23.815 27.6054C23.6547 29.5479 21.9939 32.4264 17.9735 32.4264C14.4916 32.4264 11.6703 29.5479 11.6703 26.0027C11.6703 22.4574 14.4916 19.5789 17.9735 19.5789C19.9548 19.5789 21.2757 20.438 22.0324 21.1368L24.6742 18.5981C22.9365 16.9953 20.673 15.9952 17.9735 15.9952C12.4526 15.9952 7.97046 20.4765 7.97046 25.9962C7.97046 31.516 12.4526 35.9972 17.9735 35.9972C23.7573 35.9972 27.5789 31.9391 27.5789 26.2142C27.5789 25.3936 27.4763 24.791 27.3417 24.1755H17.9799V27.599L23.815 27.6054Z" fill="#EEEEEE"/>
<path d="M59.7423 12.8474H33.2664L29.137 0H4.25769C1.91724 0 0 1.91686 0 4.26325V47.665C0 50.005 1.91724 51.9219 4.25769 51.9219H30.926L34.863 64H59.7423C62.0828 64 64 62.1152 64 59.8073V17.0402C64 14.7322 62.0828 12.8474 59.7423 12.8474Z" fill="url(#paint1_radial_2_1735)"/>
</g>
<defs>
<linearGradient id="paint0_linear_2_1735" x1="34.2603" y1="27.772" x2="64" y2="27.772" gradientUnits="userSpaceOnUse">
<stop stop-color="white" stop-opacity="0.2"/>
<stop offset="1" stop-color="white" stop-opacity="0.02"/>
</linearGradient>
<radialGradient id="paint1_radial_2_1735" cx="0" cy="0" r="1" gradientUnits="userSpaceOnUse" gradientTransform="translate(4.18126 1.24154) scale(89.6597 89.6417)">
<stop stop-color="white" stop-opacity="0.1"/>
<stop offset="1" stop-color="white" stop-opacity="0"/>
</radialGradient>
<clipPath id="clip0_2_1735">
<rect width="64" height="64" fill="white"/>
</clipPath>
</defs>
</svg>
